<svg width="1280" height="832" viewBox="0 0 1280 832" fill="none" xmlns="http://www.w3.org/2000/svg">
<rect width="1280" height="832" fill="url(#paint0_linear_1_4)"/>
<path d="M0 0H587L905.5 832H298L0 0Z" fill="url(#paint1_linear_1_4)"/>
<path d="M905.5 0H318.5L0 832H607.5L905.5 0Z" fill="url(#paint2_linear_1_4)"/>
<path d="M480.176 382.152L454.492 451H451.611L478.223 379.906H480.762L480.176 382.152ZM505.176 451L479.492 382.152L478.955 379.906H481.445L508.057 451H505.176ZM497.656 427.123V429.76H462.061V427.123H497.656ZM539.209 451H521.875L521.973 448.363H539.209C544.32 448.363 548.877 447.143 552.881 444.701C556.917 442.26 560.091 438.891 562.402 434.594C564.746 430.297 565.918 425.365 565.918 419.799V410.961C565.918 406.827 565.251 403.035 563.916 399.584C562.581 396.101 560.71 393.09 558.301 390.551C555.892 388.012 553.06 386.042 549.805 384.643C546.549 383.243 543.018 382.543 539.209 382.543H521.582V379.906H539.209C543.408 379.906 547.282 380.655 550.83 382.152C554.411 383.65 557.52 385.782 560.156 388.549C562.826 391.316 564.893 394.62 566.357 398.461C567.822 402.27 568.555 406.485 568.555 411.107V419.799C568.555 424.421 567.822 428.653 566.357 432.494C564.893 436.303 562.826 439.59 560.156 442.357C557.52 445.124 554.411 447.257 550.83 448.754C547.282 450.251 543.408 451 539.209 451ZM522.168 379.906V451H519.531V379.906H522.168ZM628.223 448.363V451H585.889V448.363H628.223ZM587.598 379.906V451H584.961V379.906H587.598ZM623.242 413.109V415.746H585.889V413.109H623.242ZM628.223 379.906V382.543H585.889V379.906H628.223ZM662.305 382.152L636.621 451H633.74L660.352 379.906H662.891L662.305 382.152ZM687.305 451L661.621 382.152L661.084 379.906H663.574L690.186 451H687.305ZM679.785 427.123V429.76H644.189V427.123H679.785ZM701.416 379.906H724.072C728.597 379.906 732.617 380.704 736.133 382.299C739.648 383.861 742.399 386.173 744.385 389.232C746.403 392.26 747.412 395.987 747.412 400.414C747.412 403.865 746.663 406.99 745.166 409.789C743.669 412.556 741.667 414.835 739.16 416.625C736.654 418.415 733.854 419.538 730.762 419.994L729.248 420.58H702.051L701.953 417.943H726.465C730.534 417.943 733.919 417.097 736.621 415.404C739.323 413.712 741.357 411.531 742.725 408.861C744.092 406.16 744.775 403.344 744.775 400.414C744.775 396.671 743.929 393.48 742.236 390.844C740.544 388.174 738.135 386.124 735.01 384.691C731.917 383.259 728.271 382.543 724.072 382.543H704.053V451H701.416V379.906ZM747.607 451L728.125 419.652L731.201 419.555L750.391 450.316V451H747.607ZM818.311 379.906V451H815.674L769.775 384.398V451H767.09V379.906H769.775L815.674 446.361V379.906H818.311Z" fill="white"/>
<defs>
<linearGradient id="paint0_linear_1_4" x1="640" y1="0" x2="640" y2="832" gradientUnits="userSpaceOnUse">
<stop stop-color="#427FDA"/>
<stop offset="1" stop-color="#A3B9DB"/>
</linearGradient>
<linearGradient id="paint1_linear_1_4" x1="452.75" y1="0" x2="452.75" y2="832" gradientUnits="userSpaceOnUse">
<stop stop-color="#3F87DB"/>
<stop offset="1" stop-color="#D9D9D9" stop-opacity="0"/>
</linearGradient>
<linearGradient id="paint2_linear_1_4" x1="452.75" y1="0" x2="452.75" y2="832" gradientUnits="userSpaceOnUse">
<stop stop-color="#3F87DB"/>
<stop offset="1" stop-color="#D9D9D9" stop-opacity="0"/>
</linearGradient>
</defs>
</svg>
